<svg width="2525" height="555" viewBox="0 0 2525 555" fill="none" xmlns="http://www.w3.org/2000/svg">
<path d="M508.467 373V358.904L553.723 353.711H562.255L607.139 358.904V373H508.467ZM538.885 373C539.379 355.936 539.627 338.625 539.627 321.067C539.874 303.262 539.998 285.332 539.998 267.28V250.958C539.998 233.4 539.874 215.841 539.627 198.283C539.627 180.478 539.379 162.796 538.885 145.237H575.98C575.485 162.548 575.114 180.107 574.867 197.912C574.867 215.47 574.867 233.152 574.867 250.958V271.731C574.867 288.547 574.867 305.24 574.867 321.809C575.114 338.378 575.485 355.442 575.98 373H538.885ZM557.432 283.601V267.28H596.382C616.413 267.28 630.756 262.21 639.412 252.071C648.067 241.931 652.395 228.948 652.395 213.121C652.395 196.799 647.696 184.187 638.299 175.284C629.149 166.134 614.682 161.559 594.898 161.559H557.432V145.237H600.462C629.891 145.237 651.901 151.544 666.491 164.156C681.082 176.521 688.377 192.843 688.377 213.121C688.377 225.733 685.162 237.48 678.733 248.361C672.55 258.995 662.411 267.527 648.315 273.957C634.219 280.386 615.424 283.601 591.93 283.601H557.432ZM508.467 159.704V145.237H557.432V164.527H553.723L508.467 159.704ZM816.334 378.193C802.98 378.193 789.997 375.72 777.385 370.774C765.02 365.581 753.768 358.038 743.628 348.146C733.736 338.007 725.823 325.519 719.888 310.681C714.2 295.843 711.356 278.655 711.356 259.119C711.356 240.324 714.323 223.508 720.258 208.67C726.194 193.832 734.107 181.343 743.999 171.204C753.891 160.817 765.02 153.027 777.385 147.834C789.997 142.393 802.98 139.673 816.334 139.673C829.688 139.673 842.548 142.27 854.913 147.463C867.278 152.409 878.406 159.952 888.298 170.091C898.438 180.23 906.351 192.719 912.039 207.557C917.974 222.395 920.942 239.582 920.942 259.119C920.942 277.913 917.974 294.73 912.039 309.568C906.351 324.406 898.561 336.894 888.669 347.034C878.777 357.173 867.525 364.963 854.913 370.403C842.548 375.597 829.688 378.193 816.334 378.193ZM816.334 360.759C831.667 360.759 844.032 355.936 853.429 346.292C863.074 336.647 870.122 324.035 874.573 308.455C879.025 292.875 881.25 276.43 881.25 259.119C881.25 246.012 880.014 233.4 877.541 221.282C875.068 209.164 871.111 198.407 865.67 189.009C860.477 179.365 853.8 171.698 845.639 166.011C837.478 160.323 827.71 157.479 816.334 157.479C804.958 157.479 795.066 160.323 786.658 166.011C778.497 171.698 771.697 179.365 766.256 189.009C761.063 198.407 757.23 209.164 754.757 221.282C752.284 233.4 751.047 246.012 751.047 259.119C751.047 276.43 753.273 292.875 757.724 308.455C762.176 324.035 769.224 336.647 778.868 346.292C788.513 355.936 801.002 360.759 816.334 360.759ZM951.142 373V358.904L996.398 353.711H1000.11V373H951.142ZM981.56 373C982.055 355.442 982.302 337.884 982.302 320.325C982.549 302.767 982.673 285.456 982.673 268.392V250.958C982.673 233.152 982.549 215.47 982.302 197.912C982.302 180.107 982.055 162.548 981.56 145.237H1018.65C1018.16 162.796 1017.79 180.478 1017.54 198.283C1017.54 215.841 1017.54 233.4 1017.54 250.958V273.957C1017.54 288.547 1017.54 304.498 1017.54 321.809C1017.79 338.873 1018.16 355.936 1018.65 373H981.56ZM1000.11 373V355.936H1103.97L1091.73 365.581L1103.6 308.826H1125.12L1121.78 373H1000.11ZM951.142 159.704V145.237H1049.44V159.704L1004.19 164.527H996.398L951.142 159.704ZM1141.03 373V358.904L1175.16 353.711H1181.83L1218.56 358.904V373H1141.03ZM1162.92 373L1241.56 143.754H1264.56L1342.83 373H1306.84L1243.78 183.816L1179.61 373H1162.92ZM1197.04 299.923L1202.61 283.601H1294.6L1300.54 299.923H1197.04ZM1267.89 373V358.904L1310.18 353.711H1319.83L1362.12 358.904V373H1267.89Z" fill="#0D5A71"/>
<path d="M1380.47 373V358.904L1425.72 353.711H1433.14L1478.4 358.904V373H1380.47ZM1410.88 373C1411.38 355.936 1411.63 338.625 1411.63 321.067C1411.87 303.262 1412 285.332 1412 267.28V250.958C1412 233.4 1411.87 215.841 1411.63 198.283C1411.63 180.478 1411.38 162.796 1410.88 145.237H1447.98C1447.49 162.548 1447.11 180.107 1446.87 197.912C1446.87 215.47 1446.87 233.152 1446.87 250.958V267.28C1446.87 284.838 1446.87 302.52 1446.87 320.325C1447.11 337.884 1447.49 355.442 1447.98 373H1410.88ZM1380.47 159.704V145.237H1478.4V159.704L1433.14 164.527H1425.72L1380.47 159.704ZM1633.74 373C1633.99 367.807 1634.11 361.006 1634.11 352.598C1634.36 344.19 1634.48 335.411 1634.48 326.26C1634.73 316.863 1634.85 308.579 1634.85 301.407V271.731C1634.85 256.398 1632.75 245.888 1628.55 240.2C1624.34 234.512 1617.54 231.669 1608.15 231.669C1599.74 231.669 1591.7 233.523 1584.03 237.233C1576.37 240.942 1567.84 247.001 1558.44 255.409L1554.73 241.313H1557.7C1566.35 230.679 1576.37 222.271 1587.74 216.089C1599.37 209.659 1610.87 206.444 1622.24 206.444C1636.83 206.444 1647.84 211.39 1655.26 221.282C1662.92 230.927 1666.76 246.754 1666.76 268.763V301.407C1666.76 308.579 1666.76 316.863 1666.76 326.26C1667 335.411 1667.13 344.19 1667.13 352.598C1667.37 361.006 1667.62 367.807 1667.87 373H1633.74ZM1506.13 373V360.388L1542.86 353.711H1552.87L1586.63 360.388V373H1506.13ZM1530.62 373C1530.86 367.807 1530.99 361.006 1530.99 352.598C1531.24 343.942 1531.36 335.04 1531.36 325.89C1531.36 316.492 1531.36 308.331 1531.36 301.407V284.714C1531.36 275.317 1531.36 267.651 1531.36 261.715C1531.36 255.78 1531.11 249.35 1530.62 242.426L1503.91 239.458V227.217L1553.62 206.444L1559.18 209.783L1562.89 249.103V301.407C1562.89 308.331 1562.89 316.492 1562.89 325.89C1563.14 335.04 1563.26 343.942 1563.26 352.598C1563.51 361.006 1563.76 367.807 1564 373H1530.62ZM1610 373V360.388L1646.72 353.711H1656.37L1690.13 360.388V373H1610ZM1751.19 373V358.904L1799.04 353.711H1807.2L1855.8 358.904V373H1751.19ZM1784.95 373C1785.44 355.936 1785.69 338.625 1785.69 321.067C1785.69 303.262 1785.69 285.332 1785.69 267.28V250.958C1785.69 233.4 1785.69 215.841 1785.69 198.283C1785.69 180.478 1785.44 162.796 1784.95 145.237H1822.04C1821.55 162.548 1821.18 180.107 1820.93 197.912C1820.93 215.47 1820.93 233.152 1820.93 250.958V267.28C1820.93 284.838 1820.93 302.52 1820.93 320.325C1821.18 337.884 1821.55 355.442 1822.04 373H1784.95ZM1706.68 206.444L1708.9 145.237H1897.71L1900.31 206.444H1879.54L1869.15 145.237L1885.84 162.672H1721.14L1737.84 145.237L1727.08 206.444H1706.68ZM1998.47 377.08C1975.22 377.08 1956.55 369.785 1942.46 355.194C1928.36 340.357 1921.31 319.831 1921.31 293.617C1921.31 275.811 1924.9 260.479 1932.07 247.619C1939.49 234.512 1949.26 224.373 1961.38 217.202C1973.49 210.03 1986.6 206.444 2000.7 206.444C2013.06 206.444 2024.07 209.164 2033.71 214.605C2043.36 219.798 2050.9 227.341 2056.34 237.233C2062.03 246.877 2064.87 258.624 2064.87 272.473C2064.87 276.43 2064.75 280.015 2064.5 283.23C2064.25 286.445 2063.76 289.289 2063.02 291.762H1935.78V276.553H2014.05C2022.21 276.553 2027.65 274.946 2030.37 271.731C2033.09 268.269 2034.45 263.817 2034.45 258.377C2034.45 248.485 2030.99 239.953 2024.07 232.781C2017.39 225.61 2008.98 222.024 1998.84 222.024C1992.16 222.024 1985.36 224.25 1978.44 228.701C1971.76 232.905 1966.07 239.953 1961.38 249.845C1956.92 259.49 1954.7 272.473 1954.7 288.795C1954.7 310.31 1959.64 326.631 1969.54 337.76C1979.68 348.888 1992.91 354.453 2009.23 354.453C2019.86 354.453 2028.76 352.351 2035.94 348.146C2043.36 343.695 2050.03 338.007 2055.97 331.083L2064.5 338.131C2058.32 350.248 2049.66 359.769 2038.53 366.694C2027.65 373.618 2014.3 377.08 1998.47 377.08ZM2172.34 377.08C2149.1 377.08 2130.3 369.661 2115.96 354.824C2101.86 339.738 2094.82 318.841 2094.82 292.133C2094.82 274.08 2098.53 258.748 2105.94 246.136C2113.36 233.276 2123.13 223.508 2135.25 216.831C2147.61 209.906 2160.84 206.444 2174.94 206.444C2190.77 206.444 2204.37 210.772 2215.75 219.427C2227.12 227.835 2233.8 238.469 2235.78 251.329C2234.05 260.232 2228.48 264.683 2219.08 264.683C2213.4 264.683 2209.07 263.076 2206.1 259.861C2203.13 256.646 2201.15 252.194 2200.17 246.506L2192 217.572L2209.07 230.556C2203.63 227.341 2198.06 225.115 2192.38 223.879C2186.93 222.642 2181.74 222.024 2176.8 222.024C2162.95 222.024 2151.32 227.712 2141.93 239.087C2132.53 250.216 2127.83 266.785 2127.83 288.795C2127.83 309.815 2132.78 326.013 2142.67 337.389C2152.81 348.765 2165.79 354.453 2181.62 354.453C2191.02 354.453 2199.79 352.227 2207.96 347.775C2216.12 343.324 2222.67 337.142 2227.62 329.228L2236.52 334.421C2226.38 362.861 2204.99 377.08 2172.34 377.08ZM2258.11 373V360.388L2294.83 353.711H2304.47L2338.23 360.388V373H2258.11ZM2282.22 373C2282.46 367.807 2282.59 361.006 2282.59 352.598C2282.84 343.942 2282.96 335.04 2282.96 325.89C2283.21 316.492 2283.33 308.331 2283.33 301.407V152.285L2256.25 148.947V136.706L2310.41 121.497L2315.6 124.464L2314.12 172.688V244.281L2315.23 248.732V301.407C2315.23 308.331 2315.23 316.492 2315.23 325.89C2315.48 335.04 2315.6 343.942 2315.6 352.598C2315.85 361.006 2316.1 367.807 2316.34 373H2282.22ZM2363.08 373V360.388L2399.81 353.711H2409.82L2443.58 360.388V373H2363.08ZM2387.2 373C2387.44 367.807 2387.57 361.006 2387.57 352.598C2387.81 344.19 2387.94 335.411 2387.94 326.26C2388.19 316.863 2388.31 308.579 2388.31 301.407V271.731C2388.31 256.398 2386.21 245.888 2382 240.2C2377.8 234.512 2370.87 231.669 2361.23 231.669C2353.07 231.669 2345.16 233.523 2337.49 237.233C2329.82 240.942 2321.29 247.125 2311.89 255.78L2306.33 242.055H2310.04C2318.69 231.421 2328.83 222.889 2340.46 216.46C2352.33 209.783 2364.07 206.444 2375.7 206.444C2390.29 206.444 2401.29 211.39 2408.71 221.282C2416.13 230.927 2419.84 246.754 2419.84 268.763V301.407C2419.84 308.579 2419.84 316.863 2419.84 326.26C2420.09 335.411 2420.21 344.19 2420.21 352.598C2420.46 361.006 2420.7 367.807 2420.95 373H2387.2Z" fill="#00AEEF"/>
<path d="M527.87 447C527.132 447 526.763 446.594 526.763 445.783V416.476C526.763 415.664 527.132 415.258 527.87 415.258H537.166C542.184 415.258 545.57 416.107 547.327 417.804C549.083 419.486 549.961 421.803 549.961 424.754C549.961 427.706 549.083 430.03 547.327 431.727C545.57 433.409 542.184 434.25 537.166 434.25H531.013V445.783C531.013 446.594 530.644 447 529.906 447H527.87ZM531.013 430.62H537.233C540.479 430.62 542.693 430.163 543.873 429.248C545.054 428.318 545.644 426.82 545.644 424.754C545.644 422.688 545.054 421.198 543.873 420.283C542.693 419.353 540.479 418.888 537.233 418.888H531.013V430.62ZM582.394 435.379C582.394 431.911 583.309 429.048 585.139 426.791C586.983 424.518 589.676 423.382 593.218 423.382C596.76 423.382 599.445 424.518 601.275 426.791C603.12 429.048 604.042 431.911 604.042 435.379C604.042 438.847 603.12 441.717 601.275 443.99C599.445 446.247 596.76 447.376 593.218 447.376C589.676 447.376 586.983 446.247 585.139 443.99C583.309 441.717 582.394 438.847 582.394 435.379ZM586.511 435.379C586.511 438.478 587.123 440.773 588.348 442.263C589.573 443.754 591.196 444.499 593.218 444.499C595.24 444.499 596.863 443.754 598.088 442.263C599.313 440.773 599.925 438.478 599.925 435.379C599.925 432.28 599.313 429.985 598.088 428.495C596.863 427.005 595.24 426.259 593.218 426.259C591.196 426.259 589.573 427.005 588.348 428.495C587.123 429.985 586.511 432.28 586.511 435.379ZM638.622 447C637.958 447 637.626 446.668 637.626 446.004V424.754C637.626 424.09 637.958 423.758 638.622 423.758H640.482C641.146 423.758 641.478 424.09 641.478 424.754V426.525H641.566C642.526 425.463 643.559 424.673 644.665 424.157C645.772 423.64 647.152 423.382 648.805 423.382C651.49 423.382 653.416 424.142 654.582 425.662C655.762 427.167 656.353 429.233 656.353 431.86V446.004C656.353 446.668 656.021 447 655.357 447H653.453C652.789 447 652.457 446.668 652.457 446.004V432.922C652.457 430.03 651.977 428.2 651.018 427.433C650.059 426.65 648.842 426.259 647.366 426.259C645.447 426.259 643.994 426.835 643.005 427.986C642.017 429.122 641.522 431.077 641.522 433.852V446.004C641.522 446.668 641.19 447 640.526 447H638.622ZM689.893 435.379C689.893 432.206 690.66 429.417 692.195 427.012C693.73 424.592 695.973 423.382 698.924 423.382C700.621 423.382 701.979 423.662 702.997 424.223C704.015 424.784 704.93 425.551 705.742 426.525H705.786C705.756 426.082 705.742 425.632 705.742 425.175V415.325C705.742 414.661 706.074 414.329 706.738 414.329H708.641C709.305 414.329 709.637 414.661 709.637 415.325V446.004C709.637 446.668 709.305 447 708.641 447H706.782C706.251 447 705.963 446.668 705.919 446.004L705.786 444.233H705.742C704.93 445.207 704.015 445.974 702.997 446.535C701.979 447.096 700.621 447.376 698.924 447.376C695.973 447.376 693.73 446.174 692.195 443.768C690.66 441.348 689.893 438.552 689.893 435.379ZM694.01 435.379C694.01 438.094 694.475 440.293 695.404 441.975C696.349 443.658 697.943 444.499 700.186 444.499C701.779 444.499 703.1 443.96 704.148 442.883C705.21 441.791 705.742 440.138 705.742 437.925V432.834C705.742 430.62 705.21 428.975 704.148 427.897C703.1 426.805 701.779 426.259 700.186 426.259C697.943 426.259 696.349 427.101 695.404 428.783C694.475 430.465 694.01 432.664 694.01 435.379ZM743.244 435.379C743.244 431.911 744.159 429.048 745.989 426.791C747.833 424.518 750.526 423.382 754.068 423.382C757.609 423.382 760.295 424.518 762.125 426.791C763.97 429.048 764.892 431.911 764.892 435.379C764.892 438.847 763.97 441.717 762.125 443.99C760.295 446.247 757.609 447.376 754.068 447.376C750.526 447.376 747.833 446.247 745.989 443.99C744.159 441.717 743.244 438.847 743.244 435.379ZM747.361 435.379C747.361 438.478 747.973 440.773 749.198 442.263C750.423 443.754 752.046 444.499 754.068 444.499C756.09 444.499 757.713 443.754 758.938 442.263C760.162 440.773 760.775 438.478 760.775 435.379C760.775 432.28 760.162 429.985 758.938 428.495C757.713 427.005 756.09 426.259 754.068 426.259C752.046 426.259 750.423 427.005 749.198 428.495C747.973 429.985 747.361 432.28 747.361 435.379ZM799.472 447C798.808 447 798.476 446.668 798.476 446.004V415.325C798.476 414.661 798.808 414.329 799.472 414.329H801.376C802.04 414.329 802.372 414.661 802.372 415.325V433.741C802.372 434.184 802.357 434.626 802.328 435.069H802.372L811.337 424.334C811.661 423.95 812.052 423.758 812.51 423.758H814.524C815.646 423.758 815.838 424.193 815.1 425.064L808.149 433.343L816.096 445.694C816.657 446.565 816.465 447 815.52 447H813.351C812.864 447 812.444 446.727 812.089 446.181L805.714 436.242L802.372 440.227V446.004C802.372 446.668 802.04 447 801.376 447H799.472ZM894.642 447C893.904 447 893.535 446.594 893.535 445.783V416.476C893.535 415.664 893.904 415.258 894.642 415.258H896.678C897.416 415.258 897.785 415.664 897.785 416.476V443.37H912.461C913.272 443.37 913.678 443.702 913.678 444.366V446.004C913.678 446.668 913.272 447 912.461 447H894.642ZM945.359 440.802C945.359 438.175 946.584 436.25 949.033 435.025C951.498 433.8 955.172 433.084 960.057 432.878V431.373C960.057 429.985 959.739 428.79 959.105 427.787C958.485 426.768 957.245 426.259 955.386 426.259C954.206 426.259 953.261 426.377 952.553 426.614C951.844 426.835 951.195 427.137 950.605 427.521C950.029 427.89 949.476 428.37 948.945 428.96C948.546 429.403 948.17 429.425 947.816 429.026L946.665 427.698C946.34 427.329 946.451 426.887 946.997 426.37C947.779 425.632 948.539 425.079 949.277 424.71C950.015 424.341 950.93 424.031 952.022 423.78C953.128 423.515 954.25 423.382 955.386 423.382C958.47 423.382 960.669 424.179 961.982 425.772C963.296 427.351 963.952 429.521 963.952 432.28V446.004C963.952 446.668 963.62 447 962.956 447H960.964C960.389 447 960.101 446.668 960.101 446.004V444.919H960.057C958.891 445.834 957.747 446.476 956.626 446.845C955.519 447.199 954.279 447.376 952.907 447.376C950.487 447.376 948.62 446.801 947.307 445.65C946.008 444.484 945.359 442.868 945.359 440.802ZM949.387 440.891C949.387 441.806 949.579 442.543 949.963 443.104C950.347 443.65 950.878 444.004 951.557 444.167C952.236 444.314 952.944 444.388 953.682 444.388C954.818 444.388 955.895 444.277 956.913 444.056C957.932 443.835 958.979 443.252 960.057 442.307V435.777C957.076 435.999 954.951 436.272 953.682 436.596C952.413 436.906 951.38 437.452 950.583 438.234C949.786 439.002 949.387 439.887 949.387 440.891ZM999.817 447C999.153 447 998.821 446.668 998.821 446.004V415.325C998.821 414.661 999.153 414.329 999.817 414.329H1001.72C1002.38 414.329 1002.72 414.661 1002.72 415.325V425.175C1002.72 425.632 1002.7 426.082 1002.67 426.525H1002.72C1003.53 425.551 1004.44 424.784 1005.46 424.223C1006.48 423.662 1007.84 423.382 1009.53 423.382C1012.49 423.382 1014.73 424.592 1016.26 427.012C1017.8 429.417 1018.57 432.206 1018.57 435.379C1018.57 438.552 1017.8 441.348 1016.26 443.768C1014.73 446.174 1012.49 447.376 1009.53 447.376C1007.84 447.376 1006.48 447.096 1005.46 446.535C1004.44 445.974 1003.53 445.207 1002.72 444.233H1002.67L1002.54 446.004C1002.49 446.668 1002.21 447 1001.68 447H999.817ZM1002.72 437.925C1002.72 440.138 1003.24 441.791 1004.29 442.883C1005.35 443.96 1006.68 444.499 1008.27 444.499C1010.52 444.499 1012.1 443.658 1013.03 441.975C1013.98 440.293 1014.45 438.094 1014.45 435.379C1014.45 432.664 1013.98 430.465 1013.03 428.783C1012.1 427.101 1010.52 426.259 1008.27 426.259C1006.68 426.259 1005.35 426.805 1004.29 427.897C1003.24 428.975 1002.72 430.62 1002.72 432.834V437.925ZM1052.13 438.899V424.754C1052.13 424.09 1052.46 423.758 1053.12 423.758H1055.03C1055.69 423.758 1056.02 424.09 1056.02 424.754V437.836C1056.02 440.728 1056.5 442.566 1057.46 443.348C1058.42 444.115 1059.61 444.499 1061.03 444.499C1062.88 444.499 1064.31 443.931 1065.3 442.794C1066.29 441.643 1066.78 439.681 1066.78 436.906V424.754C1066.78 424.09 1067.11 423.758 1067.78 423.758H1069.68C1070.34 423.758 1070.68 424.09 1070.68 424.754V446.004C1070.68 446.668 1070.34 447 1069.68 447H1067.82C1067.16 447 1066.83 446.668 1066.83 446.004V444.233H1066.74C1065.78 445.296 1064.74 446.085 1063.64 446.602C1062.53 447.118 1061.18 447.376 1059.59 447.376C1057 447.376 1055.12 446.624 1053.92 445.119C1052.72 443.599 1052.13 441.525 1052.13 438.899ZM1104.62 436.309C1103.95 436.309 1103.62 436.05 1103.62 435.534V433.985C1103.62 433.468 1103.95 433.21 1104.62 433.21H1115.2C1115.86 433.21 1116.19 433.468 1116.19 433.985V435.534C1116.19 436.05 1115.86 436.309 1115.2 436.309H1104.62ZM1150.86 447C1150.12 447 1149.75 446.594 1149.75 445.783V416.476C1149.75 415.664 1150.12 415.258 1150.86 415.258H1152.9C1153.63 415.258 1154 415.664 1154 416.476V445.783C1154 446.594 1153.63 447 1152.9 447H1150.86ZM1190.47 447C1189.8 447 1189.47 446.668 1189.47 446.004V424.754C1189.47 424.09 1189.8 423.758 1190.47 423.758H1192.33C1192.99 423.758 1193.32 424.09 1193.32 424.754V426.525H1193.41C1194.37 425.463 1195.4 424.673 1196.51 424.157C1197.62 423.64 1199 423.382 1200.65 423.382C1203.33 423.382 1205.26 424.142 1206.43 425.662C1207.61 427.167 1208.2 429.233 1208.2 431.86V446.004C1208.2 446.668 1207.86 447 1207.2 447H1205.3C1204.63 447 1204.3 446.668 1204.3 446.004V432.922C1204.3 430.03 1203.82 428.2 1202.86 427.433C1201.9 426.65 1200.68 426.259 1199.21 426.259C1197.29 426.259 1195.84 426.835 1194.85 427.986C1193.86 429.122 1193.37 431.077 1193.37 433.852V446.004C1193.37 446.668 1193.03 447 1192.37 447H1190.47ZM1243.99 447C1243.33 447 1243 446.668 1243 446.004V424.754C1243 424.09 1243.33 423.758 1243.99 423.758H1245.85C1246.52 423.758 1246.85 424.09 1246.85 424.754V426.525H1246.94C1247.9 425.463 1248.93 424.673 1250.04 424.157C1251.14 423.64 1252.52 423.382 1254.18 423.382C1256.86 423.382 1258.79 424.142 1259.95 425.662C1261.13 427.167 1261.72 429.233 1261.72 431.86V446.004C1261.72 446.668 1261.39 447 1260.73 447H1258.82C1258.16 447 1257.83 446.668 1257.83 446.004V432.922C1257.83 430.03 1257.35 428.2 1256.39 427.433C1255.43 426.65 1254.21 426.259 1252.74 426.259C1250.82 426.259 1249.37 426.835 1248.38 427.986C1247.39 429.122 1246.89 431.077 1246.89 433.852V446.004C1246.89 446.668 1246.56 447 1245.9 447H1243.99ZM1295.26 435.379C1295.26 431.911 1296.18 429.048 1298.01 426.791C1299.85 424.518 1302.55 423.382 1306.09 423.382C1309.63 423.382 1312.32 424.518 1314.15 426.791C1315.99 429.048 1316.91 431.911 1316.91 435.379C1316.91 438.847 1315.99 441.717 1314.15 443.99C1312.32 446.247 1309.63 447.376 1306.09 447.376C1302.55 447.376 1299.85 446.247 1298.01 443.99C1296.18 441.717 1295.26 438.847 1295.26 435.379ZM1299.38 435.379C1299.38 438.478 1299.99 440.773 1301.22 442.263C1302.44 443.754 1304.07 444.499 1306.09 444.499C1308.11 444.499 1309.73 443.754 1310.96 442.263C1312.18 440.773 1312.8 438.478 1312.8 435.379C1312.8 432.28 1312.18 429.985 1310.96 428.495C1309.73 427.005 1308.11 426.259 1306.09 426.259C1304.07 426.259 1302.44 427.005 1301.22 428.495C1299.99 429.985 1299.38 432.28 1299.38 435.379ZM1348.73 424.843C1348.47 424.12 1348.67 423.758 1349.32 423.758H1351.74C1352.21 423.758 1352.54 424.046 1352.73 424.621L1357.42 439.231C1357.81 440.426 1358.07 441.252 1358.2 441.71C1358.35 442.152 1358.48 442.706 1358.6 443.37H1358.69C1358.8 442.706 1358.93 442.152 1359.06 441.71C1359.21 441.252 1359.48 440.426 1359.86 439.231L1364.55 424.621C1364.74 424.046 1365.08 423.758 1365.55 423.758H1367.96C1368.61 423.758 1368.81 424.12 1368.56 424.843L1361.3 445.65C1360.99 446.55 1360.59 447 1360.1 447H1357.18C1356.69 447 1356.3 446.55 1355.99 445.65L1348.73 424.843ZM1399.62 440.802C1399.62 438.175 1400.84 436.25 1403.29 435.025C1405.76 433.8 1409.43 433.084 1414.32 432.878V431.373C1414.32 429.985 1414 428.79 1413.37 427.787C1412.75 426.768 1411.51 426.259 1409.65 426.259C1408.47 426.259 1407.52 426.377 1406.81 426.614C1406.11 426.835 1405.46 427.137 1404.87 427.521C1404.29 427.89 1403.74 428.37 1403.21 428.96C1402.81 429.403 1402.43 429.425 1402.08 429.026L1400.93 427.698C1400.6 427.329 1400.71 426.887 1401.26 426.37C1402.04 425.632 1402.8 425.079 1403.54 424.71C1404.28 424.341 1405.19 424.031 1406.28 423.78C1407.39 423.515 1408.51 423.382 1409.65 423.382C1412.73 423.382 1414.93 424.179 1416.24 425.772C1417.56 427.351 1418.21 429.521 1418.21 432.28V446.004C1418.21 446.668 1417.88 447 1417.22 447H1415.23C1414.65 447 1414.36 446.668 1414.36 446.004V444.919H1414.32C1413.15 445.834 1412.01 446.476 1410.89 446.845C1409.78 447.199 1408.54 447.376 1407.17 447.376C1404.75 447.376 1402.88 446.801 1401.57 445.65C1400.27 444.484 1399.62 442.868 1399.62 440.802ZM1403.65 440.891C1403.65 441.806 1403.84 442.543 1404.22 443.104C1404.61 443.65 1405.14 444.004 1405.82 444.167C1406.5 444.314 1407.2 444.388 1407.94 444.388C1409.08 444.388 1410.16 444.277 1411.17 444.056C1412.19 443.835 1413.24 443.252 1414.32 442.307V435.777C1411.34 435.999 1409.21 436.272 1407.94 436.596C1406.67 436.906 1405.64 437.452 1404.84 438.234C1404.05 439.002 1403.65 439.887 1403.65 440.891ZM1451.95 426.68C1451.29 426.68 1450.96 426.422 1450.96 425.905V424.533C1450.96 424.016 1451.29 423.758 1451.95 423.758H1454.56V421.766C1454.56 421.471 1454.64 421.19 1454.79 420.925L1456.34 418.114C1456.62 417.597 1456.84 417.339 1457.02 417.339H1457.8C1458.24 417.339 1458.46 417.597 1458.46 418.114V423.758H1463.18C1463.84 423.758 1464.17 424.016 1464.17 424.533V425.905C1464.17 426.422 1463.84 426.68 1463.18 426.68H1458.46V440.78C1458.46 442.329 1458.69 443.34 1459.15 443.813C1459.62 444.27 1460.18 444.499 1460.83 444.499C1461.33 444.499 1461.93 444.351 1462.62 444.056C1463.33 443.761 1463.82 443.51 1464.08 443.303C1464.35 443.097 1464.55 443.163 1464.7 443.503L1465.43 445.207C1465.55 445.502 1465.46 445.738 1465.17 445.915C1464.59 446.255 1463.75 446.587 1462.64 446.911C1461.54 447.221 1460.43 447.376 1459.32 447.376C1457.79 447.376 1456.61 446.823 1455.78 445.716C1454.97 444.609 1454.56 443.045 1454.56 441.024V426.68H1451.95ZM1499.42 447C1498.75 447 1498.42 446.668 1498.42 446.004V424.754C1498.42 424.09 1498.75 423.758 1499.42 423.758H1501.32C1501.98 423.758 1502.32 424.09 1502.32 424.754V446.004C1502.32 446.668 1501.98 447 1501.32 447H1499.42ZM1499.42 419.552C1498.75 419.552 1498.42 419.22 1498.42 418.556V416.653C1498.42 415.989 1498.75 415.657 1499.42 415.657H1501.32C1501.98 415.657 1502.32 415.989 1502.32 416.653V418.556C1502.32 419.22 1501.98 419.552 1501.32 419.552H1499.42ZM1535.9 435.379C1535.9 431.911 1536.81 429.048 1538.64 426.791C1540.49 424.518 1543.18 423.382 1546.72 423.382C1550.27 423.382 1552.95 424.518 1554.78 426.791C1556.63 429.048 1557.55 431.911 1557.55 435.379C1557.55 438.847 1556.63 441.717 1554.78 443.99C1552.95 446.247 1550.27 447.376 1546.72 447.376C1543.18 447.376 1540.49 446.247 1538.64 443.99C1536.81 441.717 1535.9 438.847 1535.9 435.379ZM1540.02 435.379C1540.02 438.478 1540.63 440.773 1541.85 442.263C1543.08 443.754 1544.7 444.499 1546.72 444.499C1548.75 444.499 1550.37 443.754 1551.59 442.263C1552.82 440.773 1553.43 438.478 1553.43 435.379C1553.43 432.28 1552.82 429.985 1551.59 428.495C1550.37 427.005 1548.75 426.259 1546.72 426.259C1544.7 426.259 1543.08 427.005 1541.85 428.495C1540.63 429.985 1540.02 432.28 1540.02 435.379ZM1592.13 447C1591.46 447 1591.13 446.668 1591.13 446.004V424.754C1591.13 424.09 1591.46 423.758 1592.13 423.758H1593.99C1594.65 423.758 1594.98 424.09 1594.98 424.754V426.525H1595.07C1596.03 425.463 1597.06 424.673 1598.17 424.157C1599.28 423.64 1600.66 423.382 1602.31 423.382C1605 423.382 1606.92 424.142 1608.09 425.662C1609.27 427.167 1609.86 429.233 1609.86 431.86V446.004C1609.86 446.668 1609.53 447 1608.86 447H1606.96C1606.29 447 1605.96 446.668 1605.96 446.004V432.922C1605.96 430.03 1605.48 428.2 1604.52 427.433C1603.56 426.65 1602.35 426.259 1600.87 426.259C1598.95 426.259 1597.5 426.835 1596.51 427.986C1595.52 429.122 1595.03 431.077 1595.03 433.852V446.004C1595.03 446.668 1594.7 447 1594.03 447H1592.13ZM1687.19 419.065C1686.38 419.065 1685.97 418.733 1685.97 418.069V416.254C1685.97 415.59 1686.38 415.258 1687.19 415.258H1710.61C1711.42 415.258 1711.82 415.59 1711.82 416.254V418.069C1711.82 418.733 1711.42 419.065 1710.61 419.065H1701.02V445.783C1701.02 446.594 1700.65 447 1699.91 447H1697.88C1697.14 447 1696.77 446.594 1696.77 445.783V419.065H1687.19ZM1736.42 435.379C1736.42 431.719 1737.34 428.805 1739.17 426.636C1741 424.466 1743.61 423.382 1747.02 423.382C1749.86 423.382 1752.2 424.378 1754.06 426.37C1755.94 428.347 1756.87 431.513 1756.87 435.866C1756.87 436.53 1756.57 436.862 1755.97 436.862H1740.54C1740.79 439.71 1741.56 441.695 1742.84 442.816C1744.12 443.923 1745.58 444.477 1747.2 444.477C1748.91 444.477 1750.23 444.189 1751.14 443.613C1752.06 443.038 1752.73 442.47 1753.16 441.909C1753.63 441.289 1754.08 441.171 1754.53 441.555L1755.83 442.684C1756.17 442.979 1756.17 443.385 1755.83 443.901C1755.55 444.329 1754.75 445.015 1753.42 445.96C1752.11 446.904 1750.03 447.376 1747.2 447.376C1743.51 447.376 1740.79 446.292 1739.03 444.122C1737.29 441.953 1736.42 439.039 1736.42 435.379ZM1740.45 433.985H1752.96C1752.9 431.919 1752.37 430.111 1751.36 428.561C1750.36 426.997 1748.88 426.215 1746.94 426.215C1745.22 426.215 1743.77 426.791 1742.57 427.942C1741.38 429.078 1740.67 431.092 1740.45 433.985ZM1789.29 435.379C1789.29 431.911 1790.14 429.048 1791.85 426.791C1793.58 424.518 1796.21 423.382 1799.75 423.382C1802.15 423.382 1803.97 423.81 1805.22 424.666C1806.49 425.507 1807.41 426.37 1807.97 427.255C1808.28 427.742 1808.21 428.133 1807.77 428.429L1806.37 429.336C1805.93 429.646 1805.49 429.447 1805.05 428.739C1804.62 428.06 1804.01 427.477 1803.23 426.99C1802.46 426.503 1801.3 426.259 1799.75 426.259C1797.73 426.259 1796.17 427.005 1795.06 428.495C1793.96 429.985 1793.4 432.28 1793.4 435.379C1793.4 438.478 1793.96 440.773 1795.06 442.263C1796.17 443.754 1797.73 444.499 1799.75 444.499C1801.39 444.499 1802.65 444.189 1803.52 443.569C1804.39 442.935 1805.02 442.248 1805.42 441.51C1805.81 440.817 1806.24 440.618 1806.73 440.913L1808.21 441.798C1808.65 442.064 1808.72 442.462 1808.41 442.994C1808.04 443.628 1807.2 444.521 1805.89 445.672C1804.59 446.808 1802.54 447.376 1799.75 447.376C1796.21 447.376 1793.58 446.247 1791.85 443.99C1790.14 441.717 1789.29 438.847 1789.29 435.379ZM1842.81 447C1842.15 447 1841.82 446.668 1841.82 446.004V415.325C1841.82 414.661 1842.15 414.329 1842.81 414.329H1844.72C1845.38 414.329 1845.71 414.661 1845.71 415.325V425.197C1845.71 425.64 1845.7 426.082 1845.67 426.525H1845.76C1846.72 425.463 1847.75 424.673 1848.86 424.157C1849.96 423.64 1851.34 423.382 1853 423.382C1855.68 423.382 1857.61 424.142 1858.77 425.662C1859.95 427.167 1860.54 429.233 1860.54 431.86V446.004C1860.54 446.668 1860.21 447 1859.55 447H1857.64C1856.98 447 1856.65 446.668 1856.65 446.004V432.922C1856.65 430.03 1856.17 428.2 1855.21 427.433C1854.25 426.65 1853.03 426.259 1851.56 426.259C1849.64 426.259 1848.18 426.835 1847.2 427.986C1846.21 429.122 1845.71 431.077 1845.71 433.852V446.004C1845.71 446.668 1845.38 447 1844.72 447H1842.81ZM1896.34 447C1895.68 447 1895.35 446.668 1895.35 446.004V424.754C1895.35 424.09 1895.68 423.758 1896.34 423.758H1898.2C1898.86 423.758 1899.2 424.09 1899.2 424.754V426.525H1899.29C1900.24 425.463 1901.28 424.673 1902.38 424.157C1903.49 423.64 1904.87 423.382 1906.52 423.382C1909.21 423.382 1911.13 424.142 1912.3 425.662C1913.48 427.167 1914.07 429.233 1914.07 431.86V446.004C1914.07 446.668 1913.74 447 1913.08 447H1911.17C1910.51 447 1910.18 446.668 1910.18 446.004V432.922C1910.18 430.03 1909.7 428.2 1908.74 427.433C1907.78 426.65 1906.56 426.259 1905.08 426.259C1903.17 426.259 1901.71 426.835 1900.72 427.986C1899.74 429.122 1899.24 431.077 1899.24 433.852V446.004C1899.24 446.668 1898.91 447 1898.24 447H1896.34ZM1947.61 435.379C1947.61 431.911 1948.53 429.048 1950.36 426.791C1952.2 424.518 1954.89 423.382 1958.44 423.382C1961.98 423.382 1964.66 424.518 1966.49 426.791C1968.34 429.048 1969.26 431.911 1969.26 435.379C1969.26 438.847 1968.34 441.717 1966.49 443.99C1964.66 446.247 1961.98 447.376 1958.44 447.376C1954.89 447.376 1952.2 446.247 1950.36 443.99C1948.53 441.717 1947.61 438.847 1947.61 435.379ZM1951.73 435.379C1951.73 438.478 1952.34 440.773 1953.57 442.263C1954.79 443.754 1956.41 444.499 1958.44 444.499C1960.46 444.499 1962.08 443.754 1963.31 442.263C1964.53 440.773 1965.14 438.478 1965.14 435.379C1965.14 432.28 1964.53 429.985 1963.31 428.495C1962.08 427.005 1960.46 426.259 1958.44 426.259C1956.41 426.259 1954.79 427.005 1953.57 428.495C1952.34 429.985 1951.73 432.28 1951.73 435.379ZM2003.84 447C2003.18 447 2002.84 446.668 2002.84 446.004V418.379C2002.84 418.084 2002.92 417.804 2003.07 417.538L2004.61 414.727C2004.9 414.21 2005.12 413.952 2005.3 413.952H2006.08C2006.52 413.952 2006.74 414.21 2006.74 414.727V446.004C2006.74 446.668 2006.41 447 2005.74 447H2003.84ZM2040.32 435.379C2040.32 431.911 2041.24 429.048 2043.07 426.791C2044.91 424.518 2047.61 423.382 2051.15 423.382C2054.69 423.382 2057.38 424.518 2059.21 426.791C2061.05 429.048 2061.97 431.911 2061.97 435.379C2061.97 438.847 2061.05 441.717 2059.21 443.99C2057.38 446.247 2054.69 447.376 2051.15 447.376C2047.61 447.376 2044.91 446.247 2043.07 443.99C2041.24 441.717 2040.32 438.847 2040.32 435.379ZM2044.44 435.379C2044.44 438.478 2045.05 440.773 2046.28 442.263C2047.5 443.754 2049.13 444.499 2051.15 444.499C2053.17 444.499 2054.79 443.754 2056.02 442.263C2057.24 440.773 2057.86 438.478 2057.86 435.379C2057.86 432.28 2057.24 429.985 2056.02 428.495C2054.79 427.005 2053.17 426.259 2051.15 426.259C2049.13 426.259 2047.5 427.005 2046.28 428.495C2045.05 429.985 2044.44 432.28 2044.44 435.379ZM2094.29 435.379C2094.29 432.206 2095.06 429.417 2096.6 427.012C2098.13 424.592 2100.37 423.382 2103.33 423.382C2105.02 423.382 2106.38 423.662 2107.4 424.223C2108.42 424.784 2109.33 425.551 2110.14 426.525H2110.19L2110.32 424.754C2110.37 424.09 2110.65 423.758 2111.18 423.758H2113.04C2113.71 423.758 2114.04 424.09 2114.04 424.754V447.177C2114.04 450.01 2113.38 452.224 2112.07 453.818C2110.77 455.426 2108.2 456.23 2104.34 456.23C2101.76 456.23 2099.83 455.935 2098.54 455.345C2097.26 454.769 2096.35 454.157 2095.8 453.508C2095.4 453.021 2095.38 452.608 2095.73 452.268L2096.95 451.073C2097.29 450.748 2097.76 450.852 2098.37 451.383C2099.15 452.091 2099.9 452.593 2100.63 452.888C2101.35 453.198 2102.6 453.353 2104.37 453.353C2106.37 453.353 2107.83 452.925 2108.75 452.069C2109.68 451.213 2110.14 449.442 2110.14 446.757V445.428C2110.14 444.971 2110.16 444.521 2110.19 444.078H2110.14C2109.38 445.096 2108.47 445.901 2107.42 446.491C2106.39 447.081 2105.02 447.376 2103.33 447.376C2100.37 447.376 2098.13 446.174 2096.6 443.768C2095.06 441.348 2094.29 438.552 2094.29 435.379ZM2098.41 435.379C2098.41 438.094 2098.88 440.293 2099.81 441.975C2100.75 443.658 2102.34 444.499 2104.59 444.499C2106.18 444.499 2107.5 443.96 2108.55 442.883C2109.61 441.791 2110.14 440.138 2110.14 437.925V432.834C2110.14 430.62 2109.61 428.975 2108.55 427.897C2107.5 426.805 2106.18 426.259 2104.59 426.259C2102.34 426.259 2100.75 427.101 2099.81 428.783C2098.88 430.465 2098.41 432.664 2098.41 435.379ZM2147.29 424.843C2147.03 424.12 2147.23 423.758 2147.89 423.758H2150.3C2150.79 423.758 2151.12 424.046 2151.3 424.621L2155.95 439.231C2156.08 439.629 2156.28 440.256 2156.54 441.112C2156.82 441.953 2157.02 442.706 2157.14 443.37H2157.19C2157.3 442.706 2157.44 442.108 2157.61 441.577C2157.78 441.031 2158.04 440.249 2158.38 439.231L2163.07 424.621C2163.27 424.046 2163.6 423.758 2164.07 423.758H2166.48C2167.15 423.758 2167.35 424.12 2167.08 424.843L2159.62 445.65C2158.22 449.56 2156.96 452.298 2155.86 453.862C2154.75 455.441 2153.1 456.23 2150.9 456.23C2149.75 456.23 2148.83 456.061 2148.16 455.721C2147.85 455.574 2147.74 455.345 2147.85 455.035L2148.42 453.242C2148.52 452.932 2148.72 452.844 2149.02 452.976C2149.62 453.227 2150.21 453.353 2150.77 453.353C2151.8 453.353 2152.64 452.792 2153.29 451.671C2153.94 450.564 2154.46 449.45 2154.84 448.328L2155.28 447.022L2147.29 424.843Z" fill="white"/>
<path d="M452 267.499C452 380.437 360.444 471.992 247.499 471.992C134.556 471.992 43 380.437 43 267.499C43 154.561 134.556 63 247.499 63C360.444 63 452 154.562 452 267.499Z" fill="#00AEEF" stroke="#F4F0E9" stroke-width="10"/>
<g filter="url(#filter0_dddddd_408_62)">
<circle cx="152.005" cy="171.343" r="18.8786" fill="#FFCE67" stroke="#FFCE67" stroke-width="0.251715"/>
<circle cx="152.005" cy="267.499" r="18.8786" fill="#FFCE67" stroke="#FFCE67" stroke-width="0.251715"/>
<circle cx="152.005" cy="363.906" r="18.8786" transform="rotate(-90 152.005 363.906)" fill="#FFCE67" stroke="#FFCE67" stroke-width="0.251715"/>
<line x1="152.133" y1="172.98" x2="248.288" y2="172.98" stroke="#FFCE67" stroke-width="14.5995"/>
<circle cx="248.161" cy="171.343" r="18.8786" fill="#FFCE67" stroke="#FFCE67" stroke-width="0.251715"/>
<line x1="152.133" y1="269.135" x2="248.288" y2="269.135" stroke="#FFCE67" stroke-width="14.5995"/>
<line x1="249.794" y1="267.624" x2="249.794" y2="171.469" stroke="#FFCE67" stroke-width="14.5995"/>
<line x1="153.642" y1="363.779" x2="153.642" y2="267.624" stroke="#FFCE67" stroke-width="14.5995"/>
<circle cx="248.161" cy="267.75" r="18.8786" transform="rotate(-90 248.161 267.75)" fill="#FFCE67" stroke="#FFCE67" stroke-width="0.251715"/>
<circle cx="248.215" cy="363.567" r="18.8786" transform="rotate(-90 248.215 363.567)" fill="#FBE1BA" stroke="#FBE1BA" stroke-width="0.251715"/>
<circle cx="344.426" cy="267.214" r="18.8786" fill="#FBE1BA" stroke="#FBE1BA" stroke-width="0.251715"/>
<circle cx="344.426" cy="171.005" r="18.8786" fill="#FBE1BA" stroke="#FBE1BA" stroke-width="0.251715"/>
<circle cx="344.426" cy="363.424" r="18.8786" transform="rotate(-90 344.426 363.424)" fill="#FBE1BA" stroke="#FBE1BA" stroke-width="0.251715"/>
<line x1="248.25" y1="363.978" x2="344.405" y2="363.978" stroke="#FBE1BA" stroke-width="14.5995"/>
<line x1="344.015" y1="267.248" x2="344.015" y2="363.403" stroke="#FBE1BA" stroke-width="14.5995"/>
<line x1="344.015" y1="171.038" x2="344.015" y2="267.193" stroke="#FBE1BA" stroke-width="14.5995"/>
</g>
<defs>
<filter id="filter0_dddddd_408_62" x="105.803" y="152" width="284.824" height="292.104" filterUnits="userSpaceOnUse" color-interpolation-filters="sRGB">
<feFlood flood-opacity="0" result="BackgroundImageFix"/>
<feColorMatrix in="SourceAlpha" type="matrix" values="0 0 0 0 0 0 0 0 0 0 0 0 0 0 0 0 0 0 127 0" result="hardAlpha"/>
<feOffset dy="0.940769"/>
<feGaussianBlur stdDeviation="0.376308"/>
<feColorMatrix type="matrix" values="0 0 0 0 0 0 0 0 0 0 0 0 0 0 0 0 0 0 0.0196802 0"/>
<feBlend mode="normal" in2="BackgroundImageFix" result="effect1_dropShadow_408_62"/>
<feColorMatrix in="SourceAlpha" type="matrix" values="0 0 0 0 0 0 0 0 0 0 0 0 0 0 0 0 0 0 127 0" result="hardAlpha"/>
<feOffset dy="2.2608"/>
<feGaussianBlur stdDeviation="0.904319"/>
<feColorMatrix type="matrix" values="0 0 0 0 0 0 0 0 0 0 0 0 0 0 0 0 0 0 0.0282725 0"/>
<feBlend mode="normal" in2="effect1_dropShadow_408_62" result="effect2_dropShadow_408_62"/>
<feColorMatrix in="SourceAlpha" type="matrix" values="0 0 0 0 0 0 0 0 0 0 0 0 0 0 0 0 0 0 127 0" result="hardAlpha"/>
<feOffset dy="4.25688"/>
<feGaussianBlur stdDeviation="1.70275"/>
<feColorMatrix type="matrix" values="0 0 0 0 0 0 0 0 0 0 0 0 0 0 0 0 0 0 0.035 0"/>
<feBlend mode="normal" in2="effect2_dropShadow_408_62" result="effect3_dropShadow_408_62"/>
<feColorMatrix in="SourceAlpha" type="matrix" values="0 0 0 0 0 0 0 0 0 0 0 0 0 0 0 0 0 0 127 0" result="hardAlpha"/>
<feOffset dy="7.59355"/>
<feGaussianBlur stdDeviation="3.03742"/>
<feColorMatrix type="matrix" values="0 0 0 0 0 0 0 0 0 0 0 0 0 0 0 0 0 0 0.0417275 0"/>
<feBlend mode="normal" in2="effect3_dropShadow_408_62" result="effect4_dropShadow_408_62"/>
<feColorMatrix in="SourceAlpha" type="matrix" values="0 0 0 0 0 0 0 0 0 0 0 0 0 0 0 0 0 0 127 0" result="hardAlpha"/>
<feOffset dy="14.2029"/>
<feGaussianBlur stdDeviation="5.68116"/>
<feColorMatrix type="matrix" values="0 0 0 0 0 0 0 0 0 0 0 0 0 0 0 0 0 0 0.0503198 0"/>
<feBlend mode="normal" in2="effect4_dropShadow_408_62" result="effect5_dropShadow_408_62"/>
<feColorMatrix in="SourceAlpha" type="matrix" values="0 0 0 0 0 0 0 0 0 0 0 0 0 0 0 0 0 0 127 0" result="hardAlpha"/>
<feOffset dy="33.9965"/>
<feGaussianBlur stdDeviation="13.5986"/>
<feColorMatrix type="matrix" values="0 0 0 0 0 0 0 0 0 0 0 0 0 0 0 0 0 0 0.07 0"/>
<feBlend mode="normal" in2="effect5_dropShadow_408_62" result="effect6_dropShadow_408_62"/>
<feBlend mode="normal" in="SourceGraphic" in2="effect6_dropShadow_408_62" result="shape"/>
</filter>
</defs>
</svg>
